# xmcd
#
# Track frame offsets: 
#        150
#        14160
#        36569
#        57075
#        65342
#        77984
#        95983
#        113102
#        131567
#        154601
#        164575
#
# Disc length: 2424 seconds
#
# Revision: 2
# Processed by: cddbd v1.5.2PL0 Copyright (c) Steve Scherf et al.
# Submitted via: ExactAudioCopy v0.99pb5
#
DISCID=9c09760b
DTITLE=LOYDOBIKOS TWN ANWGEIWN - PYLH THS AMMOY
DYEAR=1997
DGENRE=Country
TTITLE0=Ioulios ki o anemos
TTITLE1=Kourasmenh neraida
TTITLE2=Mana
TTITLE3=Anoixto Para8yro
TTITLE4=To gramma tou nauth
TTITLE5=To arwma
TTITLE6=Pylh ths ammou
TTITLE7=Salwmh
TTITLE8=Dwdeka ta oxi
TTITLE9=To 3erw pws yparxeis
TTITLE10=To nelo
EXTD=
EXTT0=
EXTT1=
EXTT2=
EXTT3=
EXTT4=
EXTT5=
EXTT6=
EXTT7=
EXTT8=
EXTT9=
EXTT10=
PLAYORDER=
